{
  "accessors": [
    {
      "bufferView": 2,
      "componentType": 5126,
      "count": 1810,
      "max": [
        8.319954872131348,
        1.0,
        0.0
      ],
      "min": [
        -8.321335792541504,
        -1.0,
        -16.63833999633789
      ],
      "type": "VEC3"
    },
    {
      "bufferView": 2,
      "byteOffset": 21720,
      "componentType": 5126,
      "count": 1810,
      "max": [
        0.9999993443489075,
        1.0,
        0.9999997019767761
      ],
      "min": [
        -0.9999999403953552,
        -1.0,
        -0.9999884963035583
      ],
      "type": "VEC3"
    },
    {
      "bufferView": 1,
      "componentType": 5126,
      "count": 1810,
      "max": [
        1.0,
        1.0
      ],
      "min": [
        0.0,
        0.0
      ],
      "type": "VEC2"
    },
    {
      "bufferView": 0,
      "componentType": 5125,
      "count": 3456,
      "type": "SCALAR"
    },
    {
      "bufferView": 2,
      "byteOffset": 43440,
      "componentType": 5126,
      "count": 8022,
      "max": [
        3.270355701446533,
        1.0,
        -3.414445400238037
      ],
      "min": [
        -4.139211177825928,
        -1.0,
        -13.22189712524414
      ],
      "type": "VEC3"
    },
    {
      "bufferView": 2,
      "byteOffset": 139704,
      "componentType": 5126,
      "count": 8022,
      "max": [
        1.0,
        1.0,
        1.0
      ],
      "min": [
        -1.0,
        -1.0,
        -0.9999997019767761
      ],
      "type": "VEC3"
    },
    {
      "bufferView": 1,
      "byteOffset": 14480,
      "componentType": 5126,
      "count": 8022,
      "max": [
        1.0,
        1.0
      ],
      "min": [
        0.0,
        0.0
      ],
      "type": "VEC2"
    },
    {
      "bufferView": 0,
      "byteOffset": 13824,
      "componentType": 5125,
      "count": 15096,
      "type": "SCALAR"
    },
    {
      "bufferView": 3,
      "componentType": 5126,
      "count": 286,
      "max": [
        5.958333492279053
      ],
      "min": [
        0.0
      ],
      "type": "SCALAR"
    },
    {
      "bufferView": 4,
      "componentType": 5126,
      "count": 286,
      "max": [
        0.7053273320198059,
        0.018463319167494774,
        0.018556363880634308,
        0.7088817954063416
      ],
      "min": [
        0.7050856351852417,
        -0.012309657409787178,
        -0.01237169187515974,
        0.7086388468742371
      ],
      "type": "VEC4"
    }
  ],
  "animations": [
    {
      "channels": [
        {
          "sampler": 0,
          "target": {
            "node": 6,
            "path": "rotation"
          }
        }
      ],
      "name": "Curve.002|Curve.002Action",
      "samplers": [
        {
          "input": 8,
          "interpolation": "LINEAR",
          "output": 9
        }
      ]
    }
  ],
  "asset": {
    "extras": {
      "author": "B1Blender (https://sketchfab.com/B1Blender)",
      "license": "CC-BY-4.0 (http://creativecommons.org/licenses/by/4.0/)",
      "source": "https://sketchfab.com/3d-models/do-not-touch-sign-warning-symbol-dbde4b85bc6c49b39a7b5b695af4f7ef",
      "title": "Do Not Touch Sign  Warning Symbol"
    },
    "generator": "Sketchfab-16.61.0",
    "version": "2.0"
  },
  "bufferViews": [
    {
      "buffer": 0,
      "byteLength": 74208,
      "name": "floatBufferViews",
      "target": 34963
    },
    {
      "buffer": 0,
      "byteLength": 78656,
      "byteOffset": 74208,
      "byteStride": 8,
      "name": "floatBufferViews",
      "target": 34962
    },
    {
      "buffer": 0,
      "byteLength": 235968,
      "byteOffset": 152864,
      "byteStride": 12,
      "name": "floatBufferViews",
      "target": 34962
    },
    {
      "buffer": 0,
      "byteLength": 1144,
      "byteOffset": 388832,
      "name": "floatBufferViews"
    },
    {
      "buffer": 0,
      "byteLength": 4576,
      "byteOffset": 389976,
      "byteStride": 16,
      "name": "floatBufferViews"
    }
  ],
  "buffers": [
    {
      "byteLength": 394552,
      "uri": "scene.bin"
    }
  ],
  "materials": [
    {
      "doubleSided": true,
      "name": "Material.001",
      "pbrMetallicRoughness": {
        "baseColorFactor": [
          0.800094,
          0.0,
          0.00545236,
          1.0
        ],
        "metallicFactor": 0.0,
        "roughnessFactor": 0.9503776370497375
      }
    },
    {
      "doubleSided": true,
      "name": "Material.002",
      "pbrMetallicRoughness": {
        "baseColorFactor": [
          0.018368,
          0.018368,
          0.018368,
          1.0
        ],
        "metallicFactor": 0.0,
        "roughnessFactor": 0.9950044796511692
      }
    }
  ],
  "meshes": [
    {
      "name": "Curve.001_Material.001_0",
      "primitives": [
        {
          "attributes": {
            "NORMAL": 1,
            "POSITION": 0,
            "TEXCOORD_0": 2
          },
          "indices": 3,
          "material": 0,
          "mode": 4
        }
      ]
    },
    {
      "name": "Curve.002_Material.002_0",
      "primitives": [
        {
          "attributes": {
            "NORMAL": 5,
            "POSITION": 4,
            "TEXCOORD_0": 6
          },
          "indices": 7,
          "material": 1,
          "mode": 4
        }
      ]
    }
  ],
  "nodes": [
    {
      "children": [
        1
      ],
      "matrix": [
        1.0,
        0.0,
        0.0,
        0.0,
        0.0,
        2.220446049250313e-16,
        -1.0,
        0.0,
        0.0,
        1.0,
        2.220446049250313e-16,
        0.0,
        0.0,
        0.0,
        0.0,
        1.0
      ],
      "name": "Sketchfab_model"
    },
    {
      "children": [
        2
      ],
      "matrix": [
        0.009999999776482582,
        0.0,
        0.0,
        0.0,
        0.0,
        0.0,
        0.009999999776482582,
        0.0,
        0.0,
        -0.009999999776482582,
        0.0,
        0.0,
        0.0,
        0.0,
        0.0,
        1.0
      ],
      "name": "a18949b498974bc7910f27e03dc19b3f.fbx"
    },
    {
      "children": [
        3
      ],
      "name": "Object_2"
    },
    {
      "children": [
        4,
        6
      ],
      "name": "RootNode"
    },
    {
      "children": [
        5
      ],
      "name": "Curve.001",
      "rotation": [
        0.7053272724151611,
        -4.997874413390676e-24,
        -1.5661411554627439e-16,
        0.7088817954063416
      ],
      "scale": [
        30.418052673339844,
        30.418048858642578,
        30.418048858642578
      ]
    },
    {
      "mesh": 0,
      "name": "Curve.001_Material.001_0"
    },
    {
      "children": [
        7
      ],
      "name": "Curve.002",
      "rotation": [
        0.7053119540214539,
        0.0046554626896977425,
        0.004678923171013594,
        0.7088663578033447
      ],
      "scale": [
        30.418052673339844,
        30.418048858642578,
        30.41805076599121
      ]
    },
    {
      "mesh": 1,
      "name": "Curve.002_Material.002_0"
    }
  ],
  "scene": 0,
  "scenes": [
    {
      "name": "Sketchfab_Scene",
      "nodes": [
        0
      ]
    }
  ]
}
