{
  "accessors": [
    {
      "bufferView": 2,
      "componentType": 5126,
      "count": 9151,
      "max": [
        1.5238770246505737,
        5.476648807525635,
        1.2443339824676514
      ],
      "min": [
        -1.5145319700241089,
        -5.536384105682373,
        -1.2501749992370605
      ],
      "type": "VEC3"
    },
    {
      "bufferView": 2,
      "byteOffset": 109812,
      "componentType": 5126,
      "count": 9151,
      "max": [
        0.9998248815536499,
        0.9971237182617188,
        0.9999955892562866
      ],
      "min": [
        -0.9996840357780457,
        -0.9995795488357544,
        -0.999865710735321
      ],
      "type": "VEC3"
    },
    {
      "bufferView": 3,
      "componentType": 5126,
      "count": 9151,
      "max": [
        0.9998235702514648,
        0.9998372197151184,
        0.9999772906303406,
        1.0
      ],
      "min": [
        -0.9998481273651123,
        -0.9999634027481079,
        -0.9999865293502808,
        1.0
      ],
      "type": "VEC4"
    },
    {
      "bufferView": 1,
      "componentType": 5126,
      "count": 9151,
      "max": [
        0.794314980506897,
        0.9935010075569153
      ],
      "min": [
        0.008895999751985073,
        0.004788994789123535
      ],
      "type": "VEC2"
    },
    {
      "bufferView": 0,
      "componentType": 5125,
      "count": 50664,
      "type": "SCALAR"
    }
  ],
  "asset": {
    "extras": {
      "author": "Colin.Greenall (https://sketchfab.com/Colin.Greenall)",
      "license": "CC-BY-4.0 (http://creativecommons.org/licenses/by/4.0/)",
      "source": "https://sketchfab.com/3d-models/zombie-hand-66ca5bfb6aeb421a8cbccd6db0ae1458",
      "title": "ZOMBIE HAND"
    },
    "generator": "Sketchfab-12.67.0",
    "version": "2.0"
  },
  "bufferViews": [
    {
      "buffer": 0,
      "byteLength": 202656,
      "name": "floatBufferViews",
      "target": 34963
    },
    {
      "buffer": 0,
      "byteLength": 73208,
      "byteOffset": 202656,
      "byteStride": 8,
      "name": "floatBufferViews",
      "target": 34962
    },
    {
      "buffer": 0,
      "byteLength": 219624,
      "byteOffset": 275864,
      "byteStride": 12,
      "name": "floatBufferViews",
      "target": 34962
    },
    {
      "buffer": 0,
      "byteLength": 146416,
      "byteOffset": 495488,
      "byteStride": 16,
      "name": "floatBufferViews",
      "target": 34962
    }
  ],
  "buffers": [
    {
      "byteLength": 641904,
      "uri": "scene.bin"
    }
  ],
  "images": [
    {
      "uri": "textures/lambert1_baseColor.png"
    },
    {
      "uri": "textures/lambert1_metallicRoughness.png"
    },
    {
      "uri": "textures/lambert1_normal.png"
    }
  ],
  "materials": [
    {
      "doubleSided": true,
      "name": "lambert1",
      "normalTexture": {
        "index": 2,
        "scale": 0.3421997458487618
      },
      "pbrMetallicRoughness": {
        "baseColorTexture": {
          "index": 0
        },
        "metallicFactor": 0.0,
        "metallicRoughnessTexture": {
          "index": 1
        }
      }
    }
  ],
  "meshes": [
    {
      "name": "Default_lambert1_0",
      "primitives": [
        {
          "attributes": {
            "NORMAL": 1,
            "POSITION": 0,
            "TANGENT": 2,
            "TEXCOORD_0": 3
          },
          "indices": 4,
          "material": 0,
          "mode": 4
        }
      ]
    }
  ],
  "nodes": [
    {
      "children": [
        1
      ],
      "matrix": [
        1.0,
        0.0,
        0.0,
        0.0,
        0.0,
        2.220446049250313e-16,
        -1.0,
        0.0,
        0.0,
        1.0,
        2.220446049250313e-16,
        0.0,
        0.0,
        0.0,
        0.0,
        1.0
      ],
      "name": "Sketchfab_model"
    },
    {
      "children": [
        2
      ],
      "matrix": [
        0.009999999776482582,
        0.0,
        0.0,
        0.0,
        0.0,
        0.0,
        0.009999999776482582,
        0.0,
        0.0,
        -0.009999999776482582,
        0.0,
        0.0,
        0.0,
        0.0,
        0.0,
        1.0
      ],
      "name": "567407510cad4a26a2c5c89e4d49c5da.fbx"
    },
    {
      "children": [
        3
      ],
      "name": "RootNode"
    },
    {
      "children": [
        4
      ],
      "matrix": [
        -0.937628913293421,
        0.3476377726257585,
        0.0,
        0.0,
        -0.3476377726257585,
        -0.937628913293421,
        0.0,
        0.0,
        0.0,
        0.0,
        1.0,
        0.0,
        1.132007360458374,
        3.0531861782073975,
        0.5736398100852966,
        1.0
      ],
      "name": "Default"
    },
    {
      "mesh": 0,
      "name": "Default_lambert1_0"
    }
  ],
  "samplers": [
    {
      "magFilter": 9729,
      "minFilter": 9987,
      "wrapS": 10497,
      "wrapT": 10497
    }
  ],
  "scene": 0,
  "scenes": [
    {
      "name": "Sketchfab_Scene",
      "nodes": [
        0
      ]
    }
  ],
  "textures": [
    {
      "sampler": 0,
      "source": 0
    },
    {
      "sampler": 0,
      "source": 1
    },
    {
      "sampler": 0,
      "source": 2
    }
  ]
}
