{
  "accessors": [
    {
      "bufferView": 2,
      "componentType": 5126,
      "count": 4253,
      "max": [
        1.5633374452590942,
        2.103925943374634,
        2.8174543380737305
      ],
      "min": [
        0.6711302399635315,
        -3.5485615730285645,
        -0.026531552895903587
      ],
      "type": "VEC3"
    },
    {
      "bufferView": 2,
      "byteOffset": 51036,
      "componentType": 5126,
      "count": 4253,
      "max": [
        1.0,
        0.9999278783798218,
        1.0
      ],
      "min": [
        -1.0,
        -0.9999558329582214,
        -1.0
      ],
      "type": "VEC3"
    },
    {
      "bufferView": 3,
      "componentType": 5126,
      "count": 4253,
      "max": [
        1.0,
        1.0,
        1.0,
        1.0
      ],
      "min": [
        -1.0,
        -1.0,
        -1.0,
        1.0
      ],
      "type": "VEC4"
    },
    {
      "bufferView": 1,
      "componentType": 5126,
      "count": 4253,
      "max": [
        0.9980300068855286,
        0.9972580075263977
      ],
      "min": [
        0.0019480000482872128,
        0.5019500255584717
      ],
      "type": "VEC2"
    },
    {
      "bufferView": 0,
      "componentType": 5125,
      "count": 11478,
      "type": "SCALAR"
    },
    {
      "bufferView": 2,
      "byteOffset": 102072,
      "componentType": 5126,
      "count": 3937,
      "max": [
        2.737863302230835,
        1.2325273752212524,
        3.619175672531128
      ],
      "min": [
        -0.27099886536598206,
        -3.198864221572876,
        0.06692831218242645
      ],
      "type": "VEC3"
    },
    {
      "bufferView": 2,
      "byteOffset": 149316,
      "componentType": 5126,
      "count": 3937,
      "max": [
        0.9999006390571594,
        0.9990158081054688,
        1.0
      ],
      "min": [
        -0.9999839067459106,
        -0.999957799911499,
        -1.0
      ],
      "type": "VEC3"
    },
    {
      "bufferView": 3,
      "byteOffset": 68048,
      "componentType": 5126,
      "count": 3937,
      "max": [
        0.9992824792861938,
        0.9978295564651489,
        0.999813973903656,
        1.0
      ],
      "min": [
        -0.9999145865440369,
        -0.9971961975097656,
        -0.9999645948410034,
        -1.0
      ],
      "type": "VEC4"
    },
    {
      "bufferView": 1,
      "byteOffset": 34024,
      "componentType": 5126,
      "count": 3937,
      "max": [
        0.9583619832992554,
        0.6945689916610718
      ],
      "min": [
        0.0021490000654011965,
        0.5019469857215881
      ],
      "type": "VEC2"
    },
    {
      "bufferView": 0,
      "byteOffset": 45912,
      "componentType": 5125,
      "count": 18378,
      "type": "SCALAR"
    },
    {
      "bufferView": 2,
      "byteOffset": 196560,
      "componentType": 5126,
      "count": 3908,
      "max": [
        1.5142520666122437,
        0.8032025098800659,
        2.693288803100586
      ],
      "min": [
        0.7542505860328674,
        -0.803202211856842,
        0.2564423382282257
      ],
      "type": "VEC3"
    },
    {
      "bufferView": 2,
      "byteOffset": 243456,
      "componentType": 5126,
      "count": 3908,
      "max": [
        1.0,
        1.0,
        1.0
      ],
      "min": [
        -1.0,
        -1.0,
        -1.0
      ],
      "type": "VEC3"
    },
    {
      "bufferView": 3,
      "byteOffset": 131040,
      "componentType": 5126,
      "count": 3908,
      "max": [
        1.0,
        1.0,
        1.0,
        1.0
      ],
      "min": [
        -1.0,
        -1.0,
        -1.0,
        -1.0
      ],
      "type": "VEC4"
    },
    {
      "bufferView": 1,
      "byteOffset": 65520,
      "componentType": 5126,
      "count": 3908,
      "max": [
        0.49801498651504517,
        0.4947910010814667
      ],
      "min": [
        0.0019440000178292394,
        0.0019460000330582261
      ],
      "type": "VEC2"
    },
    {
      "bufferView": 0,
      "byteOffset": 119424,
      "componentType": 5125,
      "count": 15084,
      "type": "SCALAR"
    },
    {
      "bufferView": 2,
      "byteOffset": 290352,
      "componentType": 5126,
      "count": 1326,
      "max": [
        3.3675994873046875,
        2.0060172080993652,
        0.5795259475708008
      ],
      "min": [
        -1.406927466392517,
        -3.5365874767303467,
        0.06746044754981995
      ],
      "type": "VEC3"
    },
    {
      "bufferView": 2,
      "byteOffset": 306264,
      "componentType": 5126,
      "count": 1326,
      "max": [
        1.0,
        1.0,
        1.0
      ],
      "min": [
        -1.0,
        -1.0,
        -0.9392346143722534
      ],
      "type": "VEC3"
    },
    {
      "bufferView": 3,
      "byteOffset": 193568,
      "componentType": 5126,
      "count": 1326,
      "max": [
        1.0,
        0.9999570846557617,
        1.0,
        1.0
      ],
      "min": [
        -1.0,
        -1.0,
        -1.0,
        -1.0
      ],
      "type": "VEC4"
    },
    {
      "bufferView": 1,
      "byteOffset": 96784,
      "componentType": 5126,
      "count": 1326,
      "max": [
        0.9978929758071899,
        0.49660998582839966
      ],
      "min": [
        0.5019530057907104,
        0.001961000030860305
      ],
      "type": "VEC2"
    },
    {
      "bufferView": 0,
      "byteOffset": 179760,
      "componentType": 5125,
      "count": 3660,
      "type": "SCALAR"
    }
  ],
  "asset": {
    "extras": {
      "author": "Roman Red (https://sketchfab.com/OFFcours1)",
      "license": "CC-BY-4.0 (http://creativecommons.org/licenses/by/4.0/)",
      "source": "https://sketchfab.com/3d-models/fantasy-door-3cae4569964a4f31b2f0abdf61d4256e",
      "title": "Fantasy Door"
    },
    "generator": "Sketchfab-16.59.0",
    "version": "2.0"
  },
  "bufferViews": [
    {
      "buffer": 0,
      "byteLength": 194400,
      "name": "floatBufferViews",
      "target": 34963
    },
    {
      "buffer": 0,
      "byteLength": 107392,
      "byteOffset": 194400,
      "byteStride": 8,
      "name": "floatBufferViews",
      "target": 34962
    },
    {
      "buffer": 0,
      "byteLength": 322176,
      "byteOffset": 301792,
      "byteStride": 12,
      "name": "floatBufferViews",
      "target": 34962
    },
    {
      "buffer": 0,
      "byteLength": 214784,
      "byteOffset": 623968,
      "byteStride": 16,
      "name": "floatBufferViews",
      "target": 34962
    }
  ],
  "buffers": [
    {
      "byteLength": 838752,
      "uri": "scene.bin"
    }
  ],
  "extensionsUsed": [
    "KHR_materials_specular"
  ],
  "images": [
    {
      "uri": "textures/Scene_-_Root_baseColor.png"
    },
    {
      "uri": "textures/Scene_-_Root_metallicRoughness.png"
    },
    {
      "uri": "textures/Scene_-_Root_normal.png"
    }
  ],
  "materials": [
    {
      "alphaMode": "BLEND",
      "doubleSided": true,
      "extensions": {
        "KHR_materials_specular": {
          "specularColorFactor": [
            1.0,
            1.0,
            1.0
          ],
          "specularFactor": 0.0
        }
      },
      "name": "Scene_-_Root",
      "normalTexture": {
        "index": 2
      },
      "occlusionTexture": {
        "index": 1
      },
      "pbrMetallicRoughness": {
        "baseColorTexture": {
          "index": 0
        },
        "metallicRoughnessTexture": {
          "index": 1
        }
      }
    }
  ],
  "meshes": [
    {
      "name": "portal_wall_01__0",
      "primitives": [
        {
          "attributes": {
            "NORMAL": 1,
            "POSITION": 0,
            "TANGENT": 2,
            "TEXCOORD_0": 3
          },
          "indices": 4,
          "material": 0,
          "mode": 4
        }
      ]
    },
    {
      "name": "portal_tree_01__0",
      "primitives": [
        {
          "attributes": {
            "NORMAL": 6,
            "POSITION": 5,
            "TANGENT": 7,
            "TEXCOORD_0": 8
          },
          "indices": 9,
          "material": 0,
          "mode": 4
        }
      ]
    },
    {
      "name": "portal_door_01__0",
      "primitives": [
        {
          "attributes": {
            "NORMAL": 11,
            "POSITION": 10,
            "TANGENT": 12,
            "TEXCOORD_0": 13
          },
          "indices": 14,
          "material": 0,
          "mode": 4
        }
      ]
    },
    {
      "name": "portal_graund_01__0",
      "primitives": [
        {
          "attributes": {
            "NORMAL": 16,
            "POSITION": 15,
            "TANGENT": 17,
            "TEXCOORD_0": 18
          },
          "indices": 19,
          "material": 0,
          "mode": 4
        }
      ]
    }
  ],
  "nodes": [
    {
      "children": [
        1
      ],
      "matrix": [
        1.0,
        -1.6081226229577292e-16,
        -5.356124287284811e-32,
        0.0,
        8.006836424271825e-33,
        3.828568672208042e-16,
        -1.0,
        0.0,
        1.6081226229577292e-16,
        1.0,
        3.828568672208042e-16,
        0.0,
        0.0,
        0.0,
        0.0,
        1.0
      ],
      "name": "Sketchfab_model"
    },
    {
      "children": [
        2
      ],
      "matrix": [
        0.009999999776482582,
        0.0,
        0.0,
        0.0,
        0.0,
        0.0,
        0.009999999776482582,
        0.0,
        0.0,
        -0.009999999776482582,
        0.0,
        0.0,
        0.0,
        0.0,
        0.0,
        1.0
      ],
      "name": "6551686b397f41d99e5f3f18db35a1ad.fbx"
    },
    {
      "children": [
        3,
        5,
        7,
        9
      ],
      "name": "RootNode"
    },
    {
      "children": [
        4
      ],
      "matrix": [
        1.0,
        0.0,
        0.0,
        0.0,
        0.0,
        -1.6292067939183141e-07,
        -0.9999999999999868,
        0.0,
        0.0,
        0.9999999999999868,
        -1.6292067939183141e-07,
        0.0,
        0.0,
        0.0,
        0.0,
        1.0
      ],
      "name": "portal_wall_01"
    },
    {
      "mesh": 0,
      "name": "portal_wall_01__0"
    },
    {
      "children": [
        6
      ],
      "matrix": [
        1.0,
        0.0,
        0.0,
        0.0,
        0.0,
        -1.6292067939183141e-07,
        -0.9999999999999868,
        0.0,
        0.0,
        0.9999999999999868,
        -1.6292067939183141e-07,
        0.0,
        0.0,
        0.0,
        0.0,
        1.0
      ],
      "name": "portal_tree_01"
    },
    {
      "mesh": 1,
      "name": "portal_tree_01__0"
    },
    {
      "children": [
        8
      ],
      "matrix": [
        1.0,
        0.0,
        0.0,
        0.0,
        0.0,
        -1.6292067939183141e-07,
        -0.9999999999999868,
        0.0,
        0.0,
        0.9999999999999868,
        -1.6292067939183141e-07,
        0.0,
        0.0,
        0.0,
        0.0,
        1.0
      ],
      "name": "portal_door_01"
    },
    {
      "mesh": 2,
      "name": "portal_door_01__0"
    },
    {
      "children": [
        10
      ],
      "matrix": [
        1.0,
        0.0,
        0.0,
        0.0,
        0.0,
        -1.6292067939183141e-07,
        -0.9999999999999868,
        0.0,
        0.0,
        0.9999999999999868,
        -1.6292067939183141e-07,
        0.0,
        0.0,
        0.0,
        0.0,
        1.0
      ],
      "name": "portal_graund_01"
    },
    {
      "mesh": 3,
      "name": "portal_graund_01__0"
    }
  ],
  "samplers": [
    {
      "magFilter": 9729,
      "minFilter": 9987,
      "wrapS": 10497,
      "wrapT": 10497
    }
  ],
  "scene": 0,
  "scenes": [
    {
      "name": "Sketchfab_Scene",
      "nodes": [
        0
      ]
    }
  ],
  "textures": [
    {
      "sampler": 0,
      "source": 0
    },
    {
      "sampler": 0,
      "source": 1
    },
    {
      "sampler": 0,
      "source": 2
    }
  ]
}
