{
  "accessors": [
    {
      "bufferView": 2,
      "componentType": 5126,
      "count": 12424,
      "max": [
        1.988804578781128,
        13.587908744812012,
        2.3291447162628174
      ],
      "min": [
        -1.8760454654693604,
        -0.010879039764404297,
        -1.9746143817901611
      ],
      "type": "VEC3"
    },
    {
      "bufferView": 2,
      "byteOffset": 149088,
      "componentType": 5126,
      "count": 12424,
      "max": [
        1.0,
        1.0,
        1.0
      ],
      "min": [
        -1.0,
        -1.0,
        -1.0
      ],
      "type": "VEC3"
    },
    {
      "bufferView": 1,
      "componentType": 5126,
      "count": 12424,
      "max": [
        0.9618375301361084,
        0.9980080723762512
      ],
      "min": [
        0.0019198354566469789,
        0.00199203216470778
      ],
      "type": "VEC2"
    },
    {
      "bufferView": 1,
      "byteOffset": 99392,
      "componentType": 5126,
      "count": 12424,
      "max": [
        0.9618375301361084,
        0.9980080723762512
      ],
      "min": [
        0.0019198354566469789,
        0.00199203216470778
      ],
      "type": "VEC2"
    },
    {
      "bufferView": 1,
      "byteOffset": 198784,
      "componentType": 5126,
      "count": 12424,
      "max": [
        0.9618375301361084,
        0.9980080723762512
      ],
      "min": [
        0.0019198354566469789,
        0.00199203216470778
      ],
      "type": "VEC2"
    },
    {
      "bufferView": 1,
      "byteOffset": 298176,
      "componentType": 5126,
      "count": 12424,
      "max": [
        0.9618375301361084,
        0.9980080723762512
      ],
      "min": [
        0.0019198354566469789,
        0.00199203216470778
      ],
      "type": "VEC2"
    },
    {
      "bufferView": 1,
      "byteOffset": 397568,
      "componentType": 5126,
      "count": 12424,
      "max": [
        0.9618375301361084,
        0.9980080723762512
      ],
      "min": [
        0.0019198354566469789,
        0.00199203216470778
      ],
      "type": "VEC2"
    },
    {
      "bufferView": 1,
      "byteOffset": 496960,
      "componentType": 5126,
      "count": 12424,
      "max": [
        0.9618375301361084,
        0.9980080723762512
      ],
      "min": [
        0.0019198354566469789,
        0.00199203216470778
      ],
      "type": "VEC2"
    },
    {
      "bufferView": 1,
      "byteOffset": 596352,
      "componentType": 5126,
      "count": 12424,
      "max": [
        0.9618375301361084,
        0.9980080723762512
      ],
      "min": [
        0.0019198354566469789,
        0.00199203216470778
      ],
      "type": "VEC2"
    },
    {
      "bufferView": 1,
      "byteOffset": 695744,
      "componentType": 5126,
      "count": 12424,
      "max": [
        0.9618375301361084,
        0.9980080723762512
      ],
      "min": [
        0.0019198354566469789,
        0.00199203216470778
      ],
      "type": "VEC2"
    },
    {
      "bufferView": 1,
      "byteOffset": 795136,
      "componentType": 5126,
      "count": 12424,
      "max": [
        0.9618375301361084,
        0.9980080723762512
      ],
      "min": [
        0.0019198354566469789,
        0.00199203216470778
      ],
      "type": "VEC2"
    },
    {
      "bufferView": 1,
      "byteOffset": 894528,
      "componentType": 5126,
      "count": 12424,
      "max": [
        0.9618375301361084,
        0.9980080723762512
      ],
      "min": [
        0.0019198354566469789,
        0.00199203216470778
      ],
      "type": "VEC2"
    },
    {
      "bufferView": 0,
      "componentType": 5125,
      "count": 30624,
      "type": "SCALAR"
    }
  ],
  "asset": {
    "extras": {
      "author": "jackmckee (https://sketchfab.com/jackmckee)",
      "license": "CC-BY-4.0 (http://creativecommons.org/licenses/by/4.0/)",
      "source": "https://sketchfab.com/3d-models/spike-trap-25d629aac8644f6ab0b46a2b59f83102",
      "title": "spike trap"
    },
    "generator": "Sketchfab-14.87.0",
    "version": "2.0"
  },
  "bufferViews": [
    {
      "buffer": 0,
      "byteLength": 122496,
      "name": "floatBufferViews",
      "target": 34963
    },
    {
      "buffer": 0,
      "byteLength": 993920,
      "byteOffset": 122496,
      "byteStride": 8,
      "name": "floatBufferViews",
      "target": 34962
    },
    {
      "buffer": 0,
      "byteLength": 298176,
      "byteOffset": 1116416,
      "byteStride": 12,
      "name": "floatBufferViews",
      "target": 34962
    }
  ],
  "buffers": [
    {
      "byteLength": 1414592,
      "uri": "scene.bin"
    }
  ],
  "images": [
    {
      "uri": "textures/lambert1_baseColor.png"
    },
    {
      "uri": "textures/lambert1_metallicRoughness.png"
    }
  ],
  "materials": [
    {
      "doubleSided": true,
      "name": "lambert1",
      "pbrMetallicRoughness": {
        "baseColorTexture": {
          "index": 0
        },
        "metallicRoughnessTexture": {
          "index": 1
        }
      }
    }
  ],
  "meshes": [
    {
      "name": "pasted__group3_pasted__pasted__pCone4_lambert1_0",
      "primitives": [
        {
          "attributes": {
            "NORMAL": 1,
            "POSITION": 0,
            "TEXCOORD_0": 2,
            "TEXCOORD_1": 3,
            "TEXCOORD_2": 4,
            "TEXCOORD_3": 5,
            "TEXCOORD_4": 6,
            "TEXCOORD_5": 7,
            "TEXCOORD_6": 8,
            "TEXCOORD_7": 9,
            "TEXCOORD_8": 10,
            "TEXCOORD_9": 11
          },
          "indices": 12,
          "material": 0,
          "mode": 4
        }
      ]
    }
  ],
  "nodes": [
    {
      "children": [
        1
      ],
      "matrix": [
        1.0,
        0.0,
        0.0,
        0.0,
        0.0,
        2.220446049250313e-16,
        -1.0,
        0.0,
        0.0,
        1.0,
        2.220446049250313e-16,
        0.0,
        0.0,
        0.0,
        0.0,
        1.0
      ],
      "name": "Sketchfab_model"
    },
    {
      "children": [
        2
      ],
      "matrix": [
        0.009999999776482582,
        0.0,
        0.0,
        0.0,
        0.0,
        0.0,
        0.009999999776482582,
        0.0,
        0.0,
        -0.009999999776482582,
        0.0,
        0.0,
        0.0,
        0.0,
        0.0,
        1.0
      ],
      "name": "spike trap.fbx"
    },
    {
      "children": [
        3
      ],
      "name": "RootNode"
    },
    {
      "children": [
        4
      ],
      "name": "pasted__group3_pasted__pasted__pCone4"
    },
    {
      "mesh": 0,
      "name": "pasted__group3_pasted__pasted__pCone4_lambert1_0"
    }
  ],
  "samplers": [
    {
      "magFilter": 9729,
      "minFilter": 9987,
      "wrapS": 10497,
      "wrapT": 10497
    }
  ],
  "scene": 0,
  "scenes": [
    {
      "name": "Sketchfab_Scene",
      "nodes": [
        0
      ]
    }
  ],
  "textures": [
    {
      "sampler": 0,
      "source": 0
    },
    {
      "sampler": 0,
      "source": 1
    }
  ]
}
