{
  "accessors": [
    {
      "bufferView": 2,
      "componentType": 5126,
      "count": 2482,
      "max": [
        52.8577766418457,
        74.48014831542969,
        52.753475189208984
      ],
      "min": [
        -52.440975189208984,
        -74.48014831542969,
        -52.753475189208984
      ],
      "type": "VEC3"
    },
    {
      "bufferView": 2,
      "byteOffset": 29784,
      "componentType": 5126,
      "count": 2482,
      "max": [
        1.0,
        1.0,
        0.9980267286300659
      ],
      "min": [
        -0.9921147227287292,
        -1.0,
        -0.9980267286300659
      ],
      "type": "VEC3"
    },
    {
      "bufferView": 3,
      "componentType": 5126,
      "count": 2482,
      "max": [
        1.0,
        0.998711109161377,
        0.999940812587738,
        1.0
      ],
      "min": [
        -0.9997832775115967,
        -0.8680281043052673,
        -1.0,
        -1.0
      ],
      "type": "VEC4"
    },
    {
      "bufferView": 1,
      "componentType": 5126,
      "count": 2482,
      "max": [
        0.9950249195098877,
        0.992738664150238
      ],
      "min": [
        0.0016681336564943194,
        0.003985881805419922
      ],
      "type": "VEC2"
    },
    {
      "bufferView": 0,
      "componentType": 5125,
      "count": 9300,
      "type": "SCALAR"
    },
    {
      "bufferView": 2,
      "byteOffset": 59568,
      "componentType": 5126,
      "count": 2482,
      "max": [
        52.8577766418457,
        74.48014831542969,
        52.753475189208984
      ],
      "min": [
        -52.440975189208984,
        -74.48014831542969,
        -52.753475189208984
      ],
      "type": "VEC3"
    },
    {
      "bufferView": 2,
      "byteOffset": 89352,
      "componentType": 5126,
      "count": 2482,
      "max": [
        1.0,
        1.0,
        0.9980267286300659
      ],
      "min": [
        -0.9921147227287292,
        -1.0,
        -0.9980267286300659
      ],
      "type": "VEC3"
    },
    {
      "bufferView": 3,
      "byteOffset": 39712,
      "componentType": 5126,
      "count": 2482,
      "max": [
        1.0,
        0.998711109161377,
        0.999940812587738,
        1.0
      ],
      "min": [
        -0.9997832775115967,
        -0.8680281043052673,
        -1.0,
        -1.0
      ],
      "type": "VEC4"
    },
    {
      "bufferView": 1,
      "byteOffset": 19856,
      "componentType": 5126,
      "count": 2482,
      "max": [
        0.9950249195098877,
        0.992738664150238
      ],
      "min": [
        0.0016681336564943194,
        0.003985881805419922
      ],
      "type": "VEC2"
    },
    {
      "bufferView": 0,
      "byteOffset": 37200,
      "componentType": 5125,
      "count": 9300,
      "type": "SCALAR"
    }
  ],
  "asset": {
    "extras": {
      "author": "Mehdi Shahsavan (https://sketchfab.com/ahmagh2e)",
      "license": "CC-BY-4.0 (http://creativecommons.org/licenses/by/4.0/)",
      "source": "https://sketchfab.com/3d-models/wooden-barrel-9-mb-81844f96a44a4d94971bb3922c720d3a",
      "title": "Wooden Barrel_9_MB"
    },
    "generator": "Sketchfab-16.59.0",
    "version": "2.0"
  },
  "bufferViews": [
    {
      "buffer": 0,
      "byteLength": 74400,
      "name": "floatBufferViews",
      "target": 34963
    },
    {
      "buffer": 0,
      "byteLength": 39712,
      "byteOffset": 74400,
      "byteStride": 8,
      "name": "floatBufferViews",
      "target": 34962
    },
    {
      "buffer": 0,
      "byteLength": 119136,
      "byteOffset": 114112,
      "byteStride": 12,
      "name": "floatBufferViews",
      "target": 34962
    },
    {
      "buffer": 0,
      "byteLength": 79424,
      "byteOffset": 233248,
      "byteStride": 16,
      "name": "floatBufferViews",
      "target": 34962
    }
  ],
  "buffers": [
    {
      "byteLength": 312672,
      "uri": "scene.bin"
    }
  ],
  "images": [
    {
      "uri": "textures/material_baseColor.png"
    },
    {
      "uri": "textures/material_metallicRoughness.png"
    },
    {
      "uri": "textures/material_normal.png"
    }
  ],
  "materials": [
    {
      "doubleSided": true,
      "name": "material",
      "normalTexture": {
        "index": 2
      },
      "pbrMetallicRoughness": {
        "baseColorTexture": {
          "index": 0
        },
        "metallicRoughnessTexture": {
          "index": 1
        }
      }
    }
  ],
  "meshes": [
    {
      "name": "Wooden_barrel_01_0",
      "primitives": [
        {
          "attributes": {
            "NORMAL": 1,
            "POSITION": 0,
            "TANGENT": 2,
            "TEXCOORD_0": 3
          },
          "indices": 4,
          "material": 0,
          "mode": 4
        }
      ]
    },
    {
      "name": "Wooden_barrel_1_01_0",
      "primitives": [
        {
          "attributes": {
            "NORMAL": 6,
            "POSITION": 5,
            "TANGENT": 7,
            "TEXCOORD_0": 8
          },
          "indices": 9,
          "material": 0,
          "mode": 4
        }
      ]
    }
  ],
  "nodes": [
    {
      "children": [
        1
      ],
      "matrix": [
        1.0,
        0.0,
        0.0,
        0.0,
        0.0,
        2.220446049250313e-16,
        -1.0,
        0.0,
        0.0,
        1.0,
        2.220446049250313e-16,
        0.0,
        0.0,
        0.0,
        0.0,
        1.0
      ],
      "name": "Sketchfab_model"
    },
    {
      "children": [
        2
      ],
      "matrix": [
        0.009999999776482582,
        0.0,
        0.0,
        0.0,
        0.0,
        0.0,
        0.009999999776482582,
        0.0,
        0.0,
        -0.009999999776482582,
        0.0,
        0.0,
        0.0,
        0.0,
        0.0,
        1.0
      ],
      "name": "e8ac7707bfd64826808bc162edbf5802.fbx"
    },
    {
      "children": [
        3,
        5,
        7
      ],
      "name": "RootNode"
    },
    {
      "children": [
        4
      ],
      "matrix": [
        0.6005828775891692,
        -0.4257280038587716,
        0.6767982519755342,
        0.0,
        0.2825712712850637,
        0.9048511848533027,
        0.3184302277013241,
        0.0,
        -0.7479663654142852,
        -2.7755575615628914e-17,
        0.6637366316611915,
        0.0,
        -542.1488647460938,
        504.8951721191406,
        -730.0148315429688,
        1.0
      ],
      "name": "CINEMA_4D_Editor"
    },
    {
      "name": "Object_4"
    },
    {
      "children": [
        6
      ],
      "matrix": [
        4.440892098500626e-16,
        1.0,
        0.0,
        0.0,
        -1.0,
        4.440892098500626e-16,
        0.0,
        0.0,
        0.0,
        0.0,
        1.0,
        0.0,
        0.0,
        52.440975189208984,
        -165.35414123535156,
        1.0
      ],
      "name": "Wooden_barrel"
    },
    {
      "mesh": 0,
      "name": "Wooden_barrel_01_0"
    },
    {
      "children": [
        8
      ],
      "matrix": [
        1.0,
        0.0,
        0.0,
        0.0,
        0.0,
        1.0,
        0.0,
        0.0,
        0.0,
        0.0,
        1.0,
        0.0,
        0.0,
        74.48014831542969,
        0.0,
        1.0
      ],
      "name": "Wooden_barrel_1"
    },
    {
      "mesh": 1,
      "name": "Wooden_barrel_1_01_0"
    }
  ],
  "samplers": [
    {
      "magFilter": 9729,
      "minFilter": 9987,
      "wrapS": 10497,
      "wrapT": 10497
    }
  ],
  "scene": 0,
  "scenes": [
    {
      "name": "Sketchfab_Scene",
      "nodes": [
        0
      ]
    }
  ],
  "textures": [
    {
      "sampler": 0,
      "source": 0
    },
    {
      "sampler": 0,
      "source": 1
    },
    {
      "sampler": 0,
      "source": 2
    }
  ]
}
