{
  "accessors": [
    {
      "bufferView": 2,
      "componentType": 5126,
      "count": 4356,
      "max": [
        566.9324951171875,
        350.0,
        6.0
      ],
      "min": [
        0.0,
        0.0,
        -6.0
      ],
      "type": "VEC3"
    },
    {
      "bufferView": 2,
      "byteOffset": 52272,
      "componentType": 5126,
      "count": 4356,
      "max": [
        1.0,
        1.0,
        1.0
      ],
      "min": [
        -1.0,
        -1.0,
        -1.0
      ],
      "type": "VEC3"
    },
    {
      "bufferView": 3,
      "componentType": 5126,
      "count": 4356,
      "max": [
        1.0,
        1.0,
        1.0,
        1.0
      ],
      "min": [
        -1.0,
        -1.0,
        -1.0,
        1.0
      ],
      "type": "VEC4"
    },
    {
      "bufferView": 1,
      "componentType": 5126,
      "count": 4356,
      "max": [
        0.99951171875,
        0.99951171875
      ],
      "min": [
        0.0004882814246229827,
        0.0478062629699707
      ],
      "type": "VEC2"
    },
    {
      "bufferView": 0,
      "componentType": 5125,
      "count": 16074,
      "type": "SCALAR"
    },
    {
      "bufferView": 2,
      "byteOffset": 104544,
      "componentType": 5126,
      "count": 4356,
      "max": [
        566.9324951171875,
        350.0,
        6.0
      ],
      "min": [
        0.0,
        0.0,
        -6.0
      ],
      "type": "VEC3"
    },
    {
      "bufferView": 2,
      "byteOffset": 156816,
      "componentType": 5126,
      "count": 4356,
      "max": [
        1.0,
        1.0,
        1.0
      ],
      "min": [
        -1.0,
        -1.0,
        -1.0
      ],
      "type": "VEC3"
    },
    {
      "bufferView": 3,
      "byteOffset": 69696,
      "componentType": 5126,
      "count": 4356,
      "max": [
        1.0,
        1.0,
        1.0,
        1.0
      ],
      "min": [
        -1.0,
        -1.0,
        -1.0,
        1.0
      ],
      "type": "VEC4"
    },
    {
      "bufferView": 1,
      "byteOffset": 34848,
      "componentType": 5126,
      "count": 4356,
      "max": [
        0.99951171875,
        0.99951171875
      ],
      "min": [
        0.0004882814246229827,
        0.0478062629699707
      ],
      "type": "VEC2"
    },
    {
      "bufferView": 0,
      "byteOffset": 64296,
      "componentType": 5125,
      "count": 16074,
      "type": "SCALAR"
    },
    {
      "bufferView": 2,
      "byteOffset": 209088,
      "componentType": 5126,
      "count": 4356,
      "max": [
        566.9324951171875,
        350.0,
        6.0
      ],
      "min": [
        0.0,
        0.0,
        -6.0
      ],
      "type": "VEC3"
    },
    {
      "bufferView": 2,
      "byteOffset": 261360,
      "componentType": 5126,
      "count": 4356,
      "max": [
        1.0,
        1.0,
        1.0
      ],
      "min": [
        -1.0,
        -1.0,
        -1.0
      ],
      "type": "VEC3"
    },
    {
      "bufferView": 3,
      "byteOffset": 139392,
      "componentType": 5126,
      "count": 4356,
      "max": [
        1.0,
        1.0,
        1.0,
        1.0
      ],
      "min": [
        -1.0,
        -1.0,
        -1.0,
        1.0
      ],
      "type": "VEC4"
    },
    {
      "bufferView": 1,
      "byteOffset": 69696,
      "componentType": 5126,
      "count": 4356,
      "max": [
        0.99951171875,
        0.99951171875
      ],
      "min": [
        0.0004882814246229827,
        0.0478062629699707
      ],
      "type": "VEC2"
    },
    {
      "bufferView": 0,
      "byteOffset": 128592,
      "componentType": 5125,
      "count": 16074,
      "type": "SCALAR"
    },
    {
      "bufferView": 2,
      "byteOffset": 313632,
      "componentType": 5126,
      "count": 4356,
      "max": [
        566.9324951171875,
        350.0,
        6.0
      ],
      "min": [
        0.0,
        0.0,
        -6.0
      ],
      "type": "VEC3"
    },
    {
      "bufferView": 2,
      "byteOffset": 365904,
      "componentType": 5126,
      "count": 4356,
      "max": [
        1.0,
        1.0,
        1.0
      ],
      "min": [
        -1.0,
        -1.0,
        -1.0
      ],
      "type": "VEC3"
    },
    {
      "bufferView": 3,
      "byteOffset": 209088,
      "componentType": 5126,
      "count": 4356,
      "max": [
        1.0,
        1.0,
        1.0,
        1.0
      ],
      "min": [
        -1.0,
        -1.0,
        -1.0,
        1.0
      ],
      "type": "VEC4"
    },
    {
      "bufferView": 1,
      "byteOffset": 104544,
      "componentType": 5126,
      "count": 4356,
      "max": [
        0.99951171875,
        0.99951171875
      ],
      "min": [
        0.0004882814246229827,
        0.0478062629699707
      ],
      "type": "VEC2"
    },
    {
      "bufferView": 0,
      "byteOffset": 192888,
      "componentType": 5125,
      "count": 16074,
      "type": "SCALAR"
    },
    {
      "bufferView": 2,
      "byteOffset": 418176,
      "componentType": 5126,
      "count": 4356,
      "max": [
        566.9324951171875,
        350.0,
        6.0
      ],
      "min": [
        0.0,
        0.0,
        -6.0
      ],
      "type": "VEC3"
    },
    {
      "bufferView": 2,
      "byteOffset": 470448,
      "componentType": 5126,
      "count": 4356,
      "max": [
        1.0,
        1.0,
        1.0
      ],
      "min": [
        -1.0,
        -1.0,
        -1.0
      ],
      "type": "VEC3"
    },
    {
      "bufferView": 3,
      "byteOffset": 278784,
      "componentType": 5126,
      "count": 4356,
      "max": [
        1.0,
        1.0,
        1.0,
        1.0
      ],
      "min": [
        -1.0,
        -1.0,
        -1.0,
        1.0
      ],
      "type": "VEC4"
    },
    {
      "bufferView": 1,
      "byteOffset": 139392,
      "componentType": 5126,
      "count": 4356,
      "max": [
        0.99951171875,
        0.99951171875
      ],
      "min": [
        0.0004882814246229827,
        0.0478062629699707
      ],
      "type": "VEC2"
    },
    {
      "bufferView": 0,
      "byteOffset": 257184,
      "componentType": 5125,
      "count": 16074,
      "type": "SCALAR"
    }
  ],
  "asset": {
    "extras": {
      "author": "adventurer (https://sketchfab.com/ahmagh2e)",
      "license": "CC-BY-4.0 (http://creativecommons.org/licenses/by/4.0/)",
      "source": "https://sketchfab.com/3d-models/fence-11mb-d23cc8cf3a8347398c49a1532dcec114",
      "title": "fence - 11MB"
    },
    "generator": "Sketchfab-16.12.0",
    "version": "2.0"
  },
  "bufferViews": [
    {
      "buffer": 0,
      "byteLength": 321480,
      "name": "floatBufferViews",
      "target": 34963
    },
    {
      "buffer": 0,
      "byteLength": 174240,
      "byteOffset": 321480,
      "byteStride": 8,
      "name": "floatBufferViews",
      "target": 34962
    },
    {
      "buffer": 0,
      "byteLength": 522720,
      "byteOffset": 495720,
      "byteStride": 12,
      "name": "floatBufferViews",
      "target": 34962
    },
    {
      "buffer": 0,
      "byteLength": 348480,
      "byteOffset": 1018440,
      "byteStride": 16,
      "name": "floatBufferViews",
      "target": 34962
    }
  ],
  "buffers": [
    {
      "byteLength": 1366920,
      "uri": "scene.bin"
    }
  ],
  "images": [
    {
      "uri": "textures/fance_baseColor.png"
    },
    {
      "uri": "textures/fance_metallicRoughness.png"
    },
    {
      "uri": "textures/fance_normal.png"
    }
  ],
  "materials": [
    {
      "alphaCutoff": 0.4127539264201399,
      "alphaMode": "MASK",
      "doubleSided": true,
      "name": "fance",
      "normalTexture": {
        "index": 2
      },
      "pbrMetallicRoughness": {
        "baseColorTexture": {
          "index": 0
        },
        "metallicRoughnessTexture": {
          "index": 1
        }
      }
    }
  ],
  "meshes": [
    {
      "name": "Fance_4_fance_0",
      "primitives": [
        {
          "attributes": {
            "NORMAL": 1,
            "POSITION": 0,
            "TANGENT": 2,
            "TEXCOORD_0": 3
          },
          "indices": 4,
          "material": 0,
          "mode": 4
        }
      ]
    },
    {
      "name": "Fance_3_fance_0",
      "primitives": [
        {
          "attributes": {
            "NORMAL": 6,
            "POSITION": 5,
            "TANGENT": 7,
            "TEXCOORD_0": 8
          },
          "indices": 9,
          "material": 0,
          "mode": 4
        }
      ]
    },
    {
      "name": "Fance_2_fance_0",
      "primitives": [
        {
          "attributes": {
            "NORMAL": 11,
            "POSITION": 10,
            "TANGENT": 12,
            "TEXCOORD_0": 13
          },
          "indices": 14,
          "material": 0,
          "mode": 4
        }
      ]
    },
    {
      "name": "Fance_1_fance_0",
      "primitives": [
        {
          "attributes": {
            "NORMAL": 16,
            "POSITION": 15,
            "TANGENT": 17,
            "TEXCOORD_0": 18
          },
          "indices": 19,
          "material": 0,
          "mode": 4
        }
      ]
    },
    {
      "name": "Fance_fance_0",
      "primitives": [
        {
          "attributes": {
            "NORMAL": 21,
            "POSITION": 20,
            "TANGENT": 22,
            "TEXCOORD_0": 23
          },
          "indices": 24,
          "material": 0,
          "mode": 4
        }
      ]
    }
  ],
  "nodes": [
    {
      "children": [
        1
      ],
      "matrix": [
        1.0,
        0.0,
        0.0,
        0.0,
        0.0,
        2.220446049250313e-16,
        -1.0,
        0.0,
        0.0,
        1.0,
        2.220446049250313e-16,
        0.0,
        0.0,
        0.0,
        0.0,
        1.0
      ],
      "name": "Sketchfab_model"
    },
    {
      "children": [
        2
      ],
      "matrix": [
        0.009999999776482582,
        0.0,
        0.0,
        0.0,
        0.0,
        0.0,
        0.009999999776482582,
        0.0,
        0.0,
        -0.009999999776482582,
        0.0,
        0.0,
        0.0,
        0.0,
        0.0,
        1.0
      ],
      "name": "56bf90f1f002426088cb850eea570ae0.fbx"
    },
    {
      "children": [
        3,
        5,
        7,
        9,
        11
      ],
      "name": "RootNode"
    },
    {
      "children": [
        4
      ],
      "matrix": [
        1.0,
        0.0,
        0.0,
        0.0,
        0.0,
        1.0,
        0.0,
        0.0,
        0.0,
        0.0,
        1.0,
        0.0,
        -1063.8094482421875,
        0.0,
        2.220446049250313e-16,
        1.0
      ],
      "name": "Fance_4"
    },
    {
      "mesh": 0,
      "name": "Fance_4_fance_0"
    },
    {
      "children": [
        6
      ],
      "matrix": [
        2.220446049250313e-16,
        0.0,
        1.0,
        0.0,
        0.0,
        1.0,
        0.0,
        0.0,
        -1.0,
        0.0,
        2.220446049250313e-16,
        0.0,
        848.8134765625,
        0.0,
        576.0473022460938,
        1.0
      ],
      "name": "Fance_3"
    },
    {
      "mesh": 1,
      "name": "Fance_3_fance_0"
    },
    {
      "children": [
        8
      ],
      "matrix": [
        2.220446049250313e-16,
        0.0,
        1.0,
        0.0,
        0.0,
        1.0,
        0.0,
        0.0,
        -1.0,
        0.0,
        2.220446049250313e-16,
        0.0,
        848.8134765625,
        0.0,
        8.942623138427734,
        1.0
      ],
      "name": "Fance_2"
    },
    {
      "mesh": 2,
      "name": "Fance_2_fance_0"
    },
    {
      "children": [
        10
      ],
      "matrix": [
        1.0,
        0.0,
        0.0,
        0.0,
        0.0,
        1.0,
        0.0,
        0.0,
        0.0,
        0.0,
        1.0,
        0.0,
        280.99945068359375,
        0.0,
        2.220446049250313e-16,
        1.0
      ],
      "name": "Fance_1"
    },
    {
      "mesh": 3,
      "name": "Fance_1_fance_0"
    },
    {
      "children": [
        12
      ],
      "matrix": [
        1.0,
        0.0,
        0.0,
        0.0,
        0.0,
        1.0,
        0.0,
        0.0,
        0.0,
        0.0,
        1.0,
        0.0,
        -283.46624755859375,
        0.0,
        2.220446049250313e-16,
        1.0
      ],
      "name": "Fance"
    },
    {
      "mesh": 4,
      "name": "Fance_fance_0"
    }
  ],
  "samplers": [
    {
      "magFilter": 9729,
      "minFilter": 9987,
      "wrapS": 10497,
      "wrapT": 10497
    }
  ],
  "scene": 0,
  "scenes": [
    {
      "name": "Sketchfab_Scene",
      "nodes": [
        0
      ]
    }
  ],
  "textures": [
    {
      "sampler": 0,
      "source": 0
    },
    {
      "sampler": 0,
      "source": 1
    },
    {
      "sampler": 0,
      "source": 2
    }
  ]
}
