{
  "accessors": [
    {
      "bufferView": 2,
      "componentType": 5126,
      "count": 65533,
      "max": [
        1.2200499773025513,
        0.9993399977684021,
        1.490190029144287
      ],
      "min": [
        -1.1950700283050537,
        -1.0,
        -0.17589999735355377
      ],
      "type": "VEC3"
    },
    {
      "bufferView": 2,
      "byteOffset": 786396,
      "componentType": 5126,
      "count": 65533,
      "max": [
        0.9999932050704956,
        0.9998235702514648,
        0.9999996423721313
      ],
      "min": [
        -0.9996994137763977,
        -0.9997572302818298,
        -0.9999591708183289
      ],
      "type": "VEC3"
    },
    {
      "bufferView": 1,
      "componentType": 5126,
      "count": 65533,
      "max": [
        0.9997599720954895,
        0.9369300007820129
      ],
      "min": [
        0.0,
        0.0
      ],
      "type": "VEC2"
    },
    {
      "bufferView": 0,
      "componentType": 5125,
      "count": 65553,
      "type": "SCALAR"
    },
    {
      "bufferView": 2,
      "byteOffset": 1572792,
      "componentType": 5126,
      "count": 65532,
      "max": [
        0.5859900116920471,
        0.9993399977684021,
        1.489989995956421
      ],
      "min": [
        -1.0678199529647827,
        -0.9989799857139587,
        -0.15783999860286713
      ],
      "type": "VEC3"
    },
    {
      "bufferView": 2,
      "byteOffset": 2359176,
      "componentType": 5126,
      "count": 65532,
      "max": [
        0.9999959468841553,
        0.9996209740638733,
        0.9999994039535522
      ],
      "min": [
        -0.9995964169502258,
        -0.9998838305473328,
        -0.9957859516143799
      ],
      "type": "VEC3"
    },
    {
      "bufferView": 1,
      "byteOffset": 524264,
      "componentType": 5126,
      "count": 65532,
      "max": [
        0.9997599720954895,
        0.9185699820518494
      ],
      "min": [
        0.00023999999393709004,
        0.0003100000030826777
      ],
      "type": "VEC2"
    },
    {
      "bufferView": 0,
      "byteOffset": 262212,
      "componentType": 5125,
      "count": 65532,
      "type": "SCALAR"
    },
    {
      "bufferView": 2,
      "byteOffset": 3145560,
      "componentType": 5126,
      "count": 65532,
      "max": [
        0.578760027885437,
        0.9993399977684021,
        1.4868600368499756
      ],
      "min": [
        -1.0664000511169434,
        -0.976639986038208,
        -0.15783999860286713
      ],
      "type": "VEC3"
    },
    {
      "bufferView": 2,
      "byteOffset": 3931944,
      "componentType": 5126,
      "count": 65532,
      "max": [
        0.9999873638153076,
        0.999984860420227,
        0.9999992847442627
      ],
      "min": [
        -0.9998751282691956,
        -0.9998147487640381,
        -0.999200701713562
      ],
      "type": "VEC3"
    },
    {
      "bufferView": 1,
      "byteOffset": 1048520,
      "componentType": 5126,
      "count": 65532,
      "max": [
        0.9997599720954895,
        0.9004600048065186
      ],
      "min": [
        0.00023999999393709004,
        0.00023999999393709004
      ],
      "type": "VEC2"
    },
    {
      "bufferView": 0,
      "byteOffset": 524340,
      "componentType": 5125,
      "count": 65532,
      "type": "SCALAR"
    },
    {
      "bufferView": 2,
      "byteOffset": 4718328,
      "componentType": 5126,
      "count": 65532,
      "max": [
        0.31964999437332153,
        0.12335000187158585,
        1.3853100538253784
      ],
      "min": [
        -1.0606600046157837,
        -0.999750018119812,
        -0.007280000019818544
      ],
      "type": "VEC3"
    },
    {
      "bufferView": 2,
      "byteOffset": 5504712,
      "componentType": 5126,
      "count": 65532,
      "max": [
        0.9999356865882874,
        0.9989404678344727,
        0.9999978542327881
      ],
      "min": [
        -0.9998956918716431,
        -0.9999148845672607,
        -0.9997051358222961
      ],
      "type": "VEC3"
    },
    {
      "bufferView": 1,
      "byteOffset": 1572776,
      "componentType": 5126,
      "count": 65532,
      "max": [
        0.9997599720954895,
        0.9369300007820129
      ],
      "min": [
        0.00023999999393709004,
        0.0002300000051036477
      ],
      "type": "VEC2"
    },
    {
      "bufferView": 0,
      "byteOffset": 786468,
      "componentType": 5125,
      "count": 65532,
      "type": "SCALAR"
    },
    {
      "bufferView": 2,
      "byteOffset": 6291096,
      "componentType": 5126,
      "count": 12897,
      "max": [
        0.5450699925422668,
        0.08440999686717987,
        1.2139099836349487
      ],
      "min": [
        -0.8642799854278564,
        -0.9201499819755554,
        0.1591300070285797
      ],
      "type": "VEC3"
    },
    {
      "bufferView": 2,
      "byteOffset": 6445860,
      "componentType": 5126,
      "count": 12897,
      "max": [
        0.9999159574508667,
        0.9999837875366211,
        0.9981293082237244
      ],
      "min": [
        -0.9992732405662537,
        -0.9998858571052551,
        -0.9908139705657959
      ],
      "type": "VEC3"
    },
    {
      "bufferView": 1,
      "byteOffset": 2097032,
      "componentType": 5126,
      "count": 12897,
      "max": [
        0.9996600151062012,
        0.893310010433197
      ],
      "min": [
        0.00023999999393709004,
        0.0002899999963119626
      ],
      "type": "VEC2"
    },
    {
      "bufferView": 0,
      "byteOffset": 1048596,
      "componentType": 5125,
      "count": 12897,
      "type": "SCALAR"
    }
  ],
  "asset": {
    "extras": {
      "author": "misterdevious (https://sketchfab.com/misterdevious)",
      "license": "CC-BY-4.0 (http://creativecommons.org/licenses/by/4.0/)",
      "source": "https://sketchfab.com/3d-models/mushroom-5c95284703884633a9b2f0c1d33a9959",
      "title": "Mushroom"
    },
    "generator": "Sketchfab-12.66.0",
    "version": "2.0"
  },
  "bufferViews": [
    {
      "buffer": 0,
      "byteLength": 1100184,
      "name": "floatBufferViews",
      "target": 34963
    },
    {
      "buffer": 0,
      "byteLength": 2200208,
      "byteOffset": 1100184,
      "byteStride": 8,
      "name": "floatBufferViews",
      "target": 34962
    },
    {
      "buffer": 0,
      "byteLength": 6600624,
      "byteOffset": 3300392,
      "byteStride": 12,
      "name": "floatBufferViews",
      "target": 34962
    }
  ],
  "buffers": [
    {
      "byteLength": 9901016,
      "uri": "scene.bin"
    }
  ],
  "images": [
    {
      "uri": "textures/mushroom_Material_u1_v1_baseColor.png"
    }
  ],
  "materials": [
    {
      "doubleSided": true,
      "name": "mushroom_Material_u1_v1",
      "pbrMetallicRoughness": {
        "baseColorTexture": {
          "index": 0
        },
        "metallicFactor": 0.0,
        "roughnessFactor": 0.6
      }
    }
  ],
  "meshes": [
    {
      "name": "default_0",
      "primitives": [
        {
          "attributes": {
            "NORMAL": 1,
            "POSITION": 0,
            "TEXCOORD_0": 2
          },
          "indices": 3,
          "material": 0,
          "mode": 4
        }
      ]
    },
    {
      "name": "default_0",
      "primitives": [
        {
          "attributes": {
            "NORMAL": 5,
            "POSITION": 4,
            "TEXCOORD_0": 6
          },
          "indices": 7,
          "material": 0,
          "mode": 4
        }
      ]
    },
    {
      "name": "default_0",
      "primitives": [
        {
          "attributes": {
            "NORMAL": 9,
            "POSITION": 8,
            "TEXCOORD_0": 10
          },
          "indices": 11,
          "material": 0,
          "mode": 4
        }
      ]
    },
    {
      "name": "default_0",
      "primitives": [
        {
          "attributes": {
            "NORMAL": 13,
            "POSITION": 12,
            "TEXCOORD_0": 14
          },
          "indices": 15,
          "material": 0,
          "mode": 4
        }
      ]
    },
    {
      "name": "default_0",
      "primitives": [
        {
          "attributes": {
            "NORMAL": 17,
            "POSITION": 16,
            "TEXCOORD_0": 18
          },
          "indices": 19,
          "material": 0,
          "mode": 4
        }
      ]
    }
  ],
  "nodes": [
    {
      "children": [
        1
      ],
      "matrix": [
        1.0,
        0.0,
        0.0,
        0.0,
        0.0,
        2.220446049250313e-16,
        -1.0,
        0.0,
        0.0,
        1.0,
        2.220446049250313e-16,
        0.0,
        0.0,
        0.0,
        0.0,
        1.0
      ],
      "name": "Sketchfab_model"
    },
    {
      "children": [
        2,
        4
      ],
      "name": "Root"
    },
    {
      "children": [
        3
      ],
      "matrix": [
        -0.29086000000000006,
        0.9551700000000001,
        -0.05519000000000001,
        0.0,
        -0.7711,
        -0.19988000000000003,
        0.6045200000000001,
        0.0,
        0.5663900000000001,
        0.21839000000000003,
        0.7946700000000001,
        0.0,
        4.076250000000001,
        1.00545,
        5.903860000000001,
        1.0
      ],
      "name": "Lamp"
    },
    {
      "name": "Lamp"
    },
    {
      "children": [
        5,
        6,
        7,
        8,
        9
      ],
      "name": "default"
    },
    {
      "mesh": 0,
      "name": "default_0"
    },
    {
      "mesh": 1,
      "name": "default_0"
    },
    {
      "mesh": 2,
      "name": "default_0"
    },
    {
      "mesh": 3,
      "name": "default_0"
    },
    {
      "mesh": 4,
      "name": "default_0"
    }
  ],
  "samplers": [
    {
      "magFilter": 9729,
      "minFilter": 9987,
      "wrapS": 10497,
      "wrapT": 10497
    }
  ],
  "scene": 0,
  "scenes": [
    {
      "name": "Sketchfab_Scene",
      "nodes": [
        0
      ]
    }
  ],
  "textures": [
    {
      "sampler": 0,
      "source": 0
    }
  ]
}
