{
  "accessors": [
    {
      "bufferView": 2,
      "componentType": 5126,
      "count": 2068,
      "max": [
        2.310014486312866,
        3.923779010772705,
        0.33115410804748535
      ],
      "min": [
        -2.0231869220733643,
        -0.40942275524139404,
        -0.421424925327301
      ],
      "type": "VEC3"
    },
    {
      "bufferView": 2,
      "byteOffset": 24816,
      "componentType": 5126,
      "count": 2068,
      "max": [
        1.0,
        1.0,
        1.0
      ],
      "min": [
        -1.0,
        -1.0,
        -0.9999998807907104
      ],
      "type": "VEC3"
    },
    {
      "bufferView": 3,
      "componentType": 5126,
      "count": 2068,
      "max": [
        1.0,
        1.0,
        1.0,
        1.0
      ],
      "min": [
        -1.0,
        -1.0,
        -1.0,
        -1.0
      ],
      "type": "VEC4"
    },
    {
      "bufferView": 1,
      "componentType": 5126,
      "count": 2068,
      "max": [
        0.9998515248298645,
        2.616729736328125
      ],
      "min": [
        0.0017115846276283264,
        0.00951018650084734
      ],
      "type": "VEC2"
    },
    {
      "bufferView": 0,
      "componentType": 5125,
      "count": 5004,
      "type": "SCALAR"
    },
    {
      "bufferView": 2,
      "byteOffset": 49632,
      "componentType": 5126,
      "count": 1750,
      "max": [
        0.7115058898925781,
        2.0975239276885986,
        0.6787304878234863
      ],
      "min": [
        -0.45209312438964844,
        -0.5726446509361267,
        -0.699831485748291
      ],
      "type": "VEC3"
    },
    {
      "bufferView": 2,
      "byteOffset": 70632,
      "componentType": 5126,
      "count": 1750,
      "max": [
        1.0,
        1.0,
        1.0
      ],
      "min": [
        -1.0,
        -1.0,
        -1.0
      ],
      "type": "VEC3"
    },
    {
      "bufferView": 3,
      "byteOffset": 33088,
      "componentType": 5126,
      "count": 1750,
      "max": [
        1.0,
        1.0,
        1.0,
        1.0
      ],
      "min": [
        -0.5310944318771362,
        -1.0,
        -1.0,
        -1.0
      ],
      "type": "VEC4"
    },
    {
      "bufferView": 1,
      "byteOffset": 16544,
      "componentType": 5126,
      "count": 1750,
      "max": [
        0.8009217381477356,
        0.95691978931427
      ],
      "min": [
        0.09436486661434174,
        0.06161150336265564
      ],
      "type": "VEC2"
    },
    {
      "bufferView": 0,
      "byteOffset": 20016,
      "componentType": 5125,
      "count": 8592,
      "type": "SCALAR"
    },
    {
      "bufferView": 2,
      "byteOffset": 91632,
      "componentType": 5126,
      "count": 36992,
      "max": [
        0.6405572891235352,
        2.007408857345581,
        0.4867558777332306
      ],
      "min": [
        -0.38196563720703125,
        -0.5710338950157166,
        -0.5078568458557129
      ],
      "type": "VEC3"
    },
    {
      "bufferView": 2,
      "byteOffset": 535536,
      "componentType": 5126,
      "count": 36992,
      "max": [
        0.9973019361495972,
        1.0,
        0.991994321346283
      ],
      "min": [
        -0.9973019361495972,
        -1.0,
        -0.9920192360877991
      ],
      "type": "VEC3"
    },
    {
      "bufferView": 3,
      "byteOffset": 61088,
      "componentType": 5126,
      "count": 36992,
      "max": [
        0.9997450113296509,
        0.9959297776222229,
        1.0,
        1.0
      ],
      "min": [
        -0.999753475189209,
        -0.9964932799339294,
        -1.0,
        -1.0
      ],
      "type": "VEC4"
    },
    {
      "bufferView": 1,
      "byteOffset": 30544,
      "componentType": 5126,
      "count": 36992,
      "max": [
        0.03946803882718086,
        0.9997758865356445
      ],
      "min": [
        0.005555698648095131,
        -0.009993553161621094
      ],
      "type": "VEC2"
    },
    {
      "bufferView": 0,
      "byteOffset": 54384,
      "componentType": 5125,
      "count": 55992,
      "type": "SCALAR"
    },
    {
      "bufferView": 2,
      "byteOffset": 979440,
      "componentType": 5126,
      "count": 1280,
      "max": [
        3.4402332305908203,
        5.062068462371826,
        0.0383213609457016
      ],
      "min": [
        -3.165365219116211,
        -1.5483729839324951,
        -0.04723624885082245
      ],
      "type": "VEC3"
    },
    {
      "bufferView": 2,
      "byteOffset": 994800,
      "componentType": 5126,
      "count": 1280,
      "max": [
        0.9996936321258545,
        0.9999443292617798,
        -0.0
      ],
      "min": [
        -0.9989877343177795,
        -0.9998931884765625,
        -0.9645439982414246
      ],
      "type": "VEC3"
    },
    {
      "bufferView": 3,
      "byteOffset": 652960,
      "componentType": 5126,
      "count": 1280,
      "max": [
        0.9765918850898743,
        0.9749693870544434,
        0.999998927116394,
        1.0
      ],
      "min": [
        -0.9764568209648132,
        -0.9770641326904297,
        -0.7578558325767517,
        1.0
      ],
      "type": "VEC4"
    },
    {
      "bufferView": 1,
      "byteOffset": 326480,
      "componentType": 5126,
      "count": 1280,
      "max": [
        0.5021212100982666,
        0.9459378123283386
      ],
      "min": [
        0.08264326304197311,
        0.029432035982608795
      ],
      "type": "VEC2"
    },
    {
      "bufferView": 0,
      "byteOffset": 278352,
      "componentType": 5125,
      "count": 3264,
      "type": "SCALAR"
    }
  ],
  "asset": {
    "extras": {
      "author": "blueman6543 (https://sketchfab.com/blueman6543)",
      "license": "CC-BY-4.0 (http://creativecommons.org/licenses/by/4.0/)",
      "source": "https://sketchfab.com/3d-models/god-of-war-nieflheim-saw-trap-c8750a76440e428faba0256106ad6b11",
      "title": "God of War Nieflheim Saw Trap"
    },
    "generator": "Sketchfab-12.65.0",
    "version": "2.0"
  },
  "bufferViews": [
    {
      "buffer": 0,
      "byteLength": 291408,
      "name": "floatBufferViews",
      "target": 34963
    },
    {
      "buffer": 0,
      "byteLength": 336720,
      "byteOffset": 291408,
      "byteStride": 8,
      "name": "floatBufferViews",
      "target": 34962
    },
    {
      "buffer": 0,
      "byteLength": 1010160,
      "byteOffset": 628128,
      "byteStride": 12,
      "name": "floatBufferViews",
      "target": 34962
    },
    {
      "buffer": 0,
      "byteLength": 673440,
      "byteOffset": 1638288,
      "byteStride": 16,
      "name": "floatBufferViews",
      "target": 34962
    }
  ],
  "buffers": [
    {
      "byteLength": 2311728,
      "uri": "scene.bin"
    }
  ],
  "images": [
    {
      "uri": "textures/material_baseColor.png"
    },
    {
      "uri": "textures/material_metallicRoughness.png"
    },
    {
      "uri": "textures/material_normal.png"
    },
    {
      "uri": "textures/trap_wrap_baseColor.png"
    },
    {
      "uri": "textures/trap_wrap_metallicRoughness.png"
    },
    {
      "uri": "textures/trap_wrap_normal.png"
    }
  ],
  "materials": [
    {
      "doubleSided": true,
      "name": "material",
      "normalTexture": {
        "index": 2
      },
      "pbrMetallicRoughness": {
        "baseColorTexture": {
          "index": 0
        },
        "metallicRoughnessTexture": {
          "index": 1
        }
      }
    },
    {
      "doubleSided": true,
      "name": "trap_wrap",
      "normalTexture": {
        "index": 5
      },
      "pbrMetallicRoughness": {
        "baseColorTexture": {
          "index": 3
        },
        "metallicRoughnessTexture": {
          "index": 4
        }
      }
    }
  ],
  "meshes": [
    {
      "name": "Object_0",
      "primitives": [
        {
          "attributes": {
            "NORMAL": 1,
            "POSITION": 0,
            "TANGENT": 2,
            "TEXCOORD_0": 3
          },
          "indices": 4,
          "material": 0,
          "mode": 4
        }
      ]
    },
    {
      "name": "Object_1",
      "primitives": [
        {
          "attributes": {
            "NORMAL": 6,
            "POSITION": 5,
            "TANGENT": 7,
            "TEXCOORD_0": 8
          },
          "indices": 9,
          "material": 0,
          "mode": 4
        }
      ]
    },
    {
      "name": "Object_2",
      "primitives": [
        {
          "attributes": {
            "NORMAL": 11,
            "POSITION": 10,
            "TANGENT": 12,
            "TEXCOORD_0": 13
          },
          "indices": 14,
          "material": 1,
          "mode": 4
        }
      ]
    },
    {
      "name": "Object_3",
      "primitives": [
        {
          "attributes": {
            "NORMAL": 16,
            "POSITION": 15,
            "TANGENT": 17,
            "TEXCOORD_0": 18
          },
          "indices": 19,
          "material": 0,
          "mode": 4
        }
      ]
    }
  ],
  "nodes": [
    {
      "children": [
        1
      ],
      "matrix": [
        1.0,
        0.0,
        0.0,
        0.0,
        0.0,
        2.220446049250313e-16,
        -1.0,
        0.0,
        0.0,
        1.0,
        2.220446049250313e-16,
        0.0,
        0.0,
        0.0,
        0.0,
        1.0
      ],
      "name": "Sketchfab_model"
    },
    {
      "children": [
        2
      ],
      "name": "root"
    },
    {
      "children": [
        3,
        5,
        8
      ],
      "matrix": [
        1.0,
        0.0,
        0.0,
        0.0,
        0.0,
        2.220446049250313e-16,
        1.0,
        0.0,
        0.0,
        -1.0,
        2.220446049250313e-16,
        0.0,
        0.0,
        0.0,
        0.0,
        1.0
      ],
      "name": "GLTF_SceneRootNode"
    },
    {
      "children": [
        4
      ],
      "name": "Circle_0"
    },
    {
      "mesh": 0,
      "name": "Object_4"
    },
    {
      "children": [
        6,
        7
      ],
      "name": "Circle.001_1"
    },
    {
      "mesh": 1,
      "name": "Object_6"
    },
    {
      "mesh": 2,
      "name": "Object_7"
    },
    {
      "children": [
        9
      ],
      "name": "Plane_2"
    },
    {
      "mesh": 3,
      "name": "Object_9"
    }
  ],
  "samplers": [
    {
      "magFilter": 9729,
      "minFilter": 9987,
      "wrapS": 10497,
      "wrapT": 10497
    }
  ],
  "scene": 0,
  "scenes": [
    {
      "name": "Sketchfab_Scene",
      "nodes": [
        0
      ]
    }
  ],
  "textures": [
    {
      "sampler": 0,
      "source": 0
    },
    {
      "sampler": 0,
      "source": 1
    },
    {
      "sampler": 0,
      "source": 2
    },
    {
      "sampler": 0,
      "source": 3
    },
    {
      "sampler": 0,
      "source": 4
    },
    {
      "sampler": 0,
      "source": 5
    }
  ]
}
