{
  "accessors": [
    {
      "bufferView": 2,
      "componentType": 5126,
      "count": 32,
      "max": [
        14.643699645996094,
        -1.7726600170135498,
        4.972799777984619
      ],
      "min": [
        -7.228119850158691,
        -6.893430233001709,
        -12.164299964904785
      ],
      "type": "VEC3"
    },
    {
      "bufferView": 2,
      "byteOffset": 384,
      "componentType": 5126,
      "count": 32,
      "max": [
        0.9874258637428284,
        0.9422087669372559,
        0.5607039928436279
      ],
      "min": [
        -0.7697261571884155,
        0.01998310163617134,
        -0.7581371665000916
      ],
      "type": "VEC3"
    },
    {
      "bufferView": 1,
      "componentType": 5126,
      "count": 32,
      "max": [
        0.0,
        0.0
      ],
      "min": [
        0.0,
        0.0
      ],
      "type": "VEC2"
    },
    {
      "bufferView": 0,
      "componentType": 5125,
      "count": 78,
      "type": "SCALAR"
    },
    {
      "bufferView": 2,
      "byteOffset": 768,
      "componentType": 5126,
      "count": 7828,
      "max": [
        16.943199157714844,
        6.513700008392334,
        27.593900680541992
      ],
      "min": [
        -15.750900268554688,
        -18.206899642944336,
        -39.39910125732422
      ],
      "type": "VEC3"
    },
    {
      "bufferView": 2,
      "byteOffset": 94704,
      "componentType": 5126,
      "count": 7828,
      "max": [
        0.9993517398834229,
        0.9999558925628662,
        0.997734010219574
      ],
      "min": [
        -0.9991275072097778,
        -0.9960896372795105,
        -0.9971674680709839
      ],
      "type": "VEC3"
    },
    {
      "bufferView": 1,
      "byteOffset": 256,
      "componentType": 5126,
      "count": 7828,
      "max": [
        0.03125,
        0.02284649945795536
      ],
      "min": [
        0.0,
        0.0
      ],
      "type": "VEC2"
    },
    {
      "bufferView": 0,
      "byteOffset": 312,
      "componentType": 5125,
      "count": 45492,
      "type": "SCALAR"
    },
    {
      "bufferView": 2,
      "byteOffset": 188640,
      "componentType": 5126,
      "count": 29116,
      "max": [
        13.64009952545166,
        4.383689880371094,
        27.163400650024414
      ],
      "min": [
        -15.64840030670166,
        -22.034500122070313,
        -19.952899932861328
      ],
      "type": "VEC3"
    },
    {
      "bufferView": 2,
      "byteOffset": 538032,
      "componentType": 5126,
      "count": 29116,
      "max": [
        0.9992348551750183,
        0.7195610404014587,
        0.9998828768730164
      ],
      "min": [
        -0.9999992251396179,
        -0.9999817609786987,
        -0.998670756816864
      ],
      "type": "VEC3"
    },
    {
      "bufferView": 1,
      "byteOffset": 62880,
      "componentType": 5126,
      "count": 29116,
      "max": [
        0.9930850267410278,
        0.9428939819335938
      ],
      "min": [
        0.000991047010757029,
        0.022397100925445557
      ],
      "type": "VEC2"
    },
    {
      "bufferView": 0,
      "byteOffset": 182280,
      "componentType": 5125,
      "count": 170379,
      "type": "SCALAR"
    },
    {
      "bufferView": 2,
      "byteOffset": 887424,
      "componentType": 5126,
      "count": 37595,
      "max": [
        16.586599349975586,
        5.346469879150391,
        26.316099166870117
      ],
      "min": [
        -15.282899856567383,
        -22.877199172973633,
        -38.9817008972168
      ],
      "type": "VEC3"
    },
    {
      "bufferView": 2,
      "byteOffset": 1338564,
      "componentType": 5126,
      "count": 37595,
      "max": [
        0.9999530911445618,
        0.9422087669372559,
        0.9994201064109802
      ],
      "min": [
        -0.9999974966049194,
        -0.9999817609786987,
        -0.9985517859458923
      ],
      "type": "VEC3"
    },
    {
      "bufferView": 1,
      "byteOffset": 295808,
      "componentType": 5126,
      "count": 37595,
      "max": [
        0.9978920221328735,
        0.9980459809303284
      ],
      "min": [
        0.0003412830119486898,
        0.21028199791908264
      ],
      "type": "VEC2"
    },
    {
      "bufferView": 0,
      "byteOffset": 863796,
      "componentType": 5125,
      "count": 216411,
      "type": "SCALAR"
    }
  ],
  "asset": {
    "extras": {
      "author": "jasonwebb (https://sketchfab.com/jasonwebb)",
      "license": "CC-BY-4.0 (http://creativecommons.org/licenses/by/4.0/)",
      "source": "https://sketchfab.com/3d-models/fallen-tree-3d-scan-with-lichen-and-snow-56ae35fbda7c4391beae8dfdc28be662",
      "title": "Fallen tree 3D scan, with lichen and snow"
    },
    "generator": "Sketchfab-16.59.0",
    "version": "2.0"
  },
  "bufferViews": [
    {
      "buffer": 0,
      "byteLength": 1729440,
      "name": "floatBufferViews",
      "target": 34963
    },
    {
      "buffer": 0,
      "byteLength": 596568,
      "byteOffset": 1729440,
      "byteStride": 8,
      "name": "floatBufferViews",
      "target": 34962
    },
    {
      "buffer": 0,
      "byteLength": 1789704,
      "byteOffset": 2326008,
      "byteStride": 12,
      "name": "floatBufferViews",
      "target": 34962
    }
  ],
  "buffers": [
    {
      "byteLength": 4115712,
      "uri": "scene.bin"
    }
  ],
  "images": [
    {
      "uri": "textures/GeneratedMat5_baseColor.png"
    },
    {
      "uri": "textures/Texture_0_baseColor.jpeg"
    },
    {
      "uri": "textures/Texture_1_baseColor.jpeg"
    }
  ],
  "materials": [
    {
      "doubleSided": true,
      "name": "GeneratedMat5",
      "pbrMetallicRoughness": {
        "baseColorTexture": {
          "index": 0
        },
        "metallicFactor": 0.0,
        "roughnessFactor": 0.6
      }
    },
    {
      "doubleSided": true,
      "name": "Texture_0",
      "pbrMetallicRoughness": {
        "baseColorTexture": {
          "index": 1
        },
        "metallicFactor": 0.0,
        "roughnessFactor": 0.6
      }
    },
    {
      "doubleSided": true,
      "name": "Texture_1",
      "pbrMetallicRoughness": {
        "baseColorTexture": {
          "index": 2
        },
        "metallicFactor": 0.0,
        "roughnessFactor": 0.6
      }
    }
  ],
  "meshes": [
    {
      "name": "Object_0",
      "primitives": [
        {
          "attributes": {
            "NORMAL": 1,
            "POSITION": 0,
            "TEXCOORD_0": 2
          },
          "indices": 3,
          "material": 0,
          "mode": 4
        }
      ]
    },
    {
      "name": "Object_1",
      "primitives": [
        {
          "attributes": {
            "NORMAL": 5,
            "POSITION": 4,
            "TEXCOORD_0": 6
          },
          "indices": 7,
          "material": 0,
          "mode": 4
        }
      ]
    },
    {
      "name": "Object_2",
      "primitives": [
        {
          "attributes": {
            "NORMAL": 9,
            "POSITION": 8,
            "TEXCOORD_0": 10
          },
          "indices": 11,
          "material": 1,
          "mode": 4
        }
      ]
    },
    {
      "name": "Object_3",
      "primitives": [
        {
          "attributes": {
            "NORMAL": 13,
            "POSITION": 12,
            "TEXCOORD_0": 14
          },
          "indices": 15,
          "material": 2,
          "mode": 4
        }
      ]
    }
  ],
  "nodes": [
    {
      "children": [
        1
      ],
      "matrix": [
        0.7929273247718811,
        -0.5936887860298157,
        0.13711267709732042,
        0.0,
        -0.543023407459259,
        -0.7906079292297362,
        -0.28295710682868974,
        0.0,
        0.27639082074165344,
        0.14990901947021507,
        -0.9492815136909485,
        0.0,
        0.0,
        0.0,
        0.0,
        1.0
      ],
      "name": "Sketchfab_model"
    },
    {
      "children": [
        2,
        3,
        4,
        5
      ],
      "name": "tree1-processed.obj.cleaner"
    },
    {
      "mesh": 0,
      "name": "Object_2"
    },
    {
      "mesh": 1,
      "name": "Object_3"
    },
    {
      "mesh": 2,
      "name": "Object_4"
    },
    {
      "mesh": 3,
      "name": "Object_5"
    }
  ],
  "samplers": [
    {
      "magFilter": 9729,
      "minFilter": 9987,
      "wrapS": 10497,
      "wrapT": 10497
    }
  ],
  "scene": 0,
  "scenes": [
    {
      "name": "Sketchfab_Scene",
      "nodes": [
        0
      ]
    }
  ],
  "textures": [
    {
      "sampler": 0,
      "source": 0
    },
    {
      "sampler": 0,
      "source": 1
    },
    {
      "sampler": 0,
      "source": 2
    }
  ]
}
